<?xml version="1.0" encoding="utf-8" standalone="no"?>
<!DOCTYPE svg PUBLIC "-//W3C//DTD SVG 1.1//EN"
  "http://www.w3.org/Graphics/SVG/1.1/DTD/svg11.dtd">
<svg xmlns:xlink="http://www.w3.org/1999/xlink" width="720pt" height="360pt" viewBox="0 0 720 360" xmlns="http://www.w3.org/2000/svg" version="1.1">
 <metadata>
  <rdf:RDF xmlns:dc="http://purl.org/dc/elements/1.1/" xmlns:cc="http://creativecommons.org/ns#" xmlns:rdf="http://www.w3.org/1999/02/22-rdf-syntax-ns#">
   <cc:Work>
    <dc:type rdf:resource="http://purl.org/dc/dcmitype/StillImage"/>
    <dc:date>2025-09-15T08:16:30.607014</dc:date>
    <dc:format>image/svg+xml</dc:format>
    <dc:creator>
     <cc:Agent>
      <dc:title>Matplotlib v3.9.4, https://matplotlib.org/</dc:title>
     </cc:Agent>
    </dc:creator>
   </cc:Work>
  </rdf:RDF>
 </metadata>
 <defs>
  <style type="text/css">*{stroke-linejoin: round; stroke-linecap: butt}</style>
 </defs>
 <g id="figure_1">
  <g id="patch_1">
   <path d="M 0 360 
L 720 360 
L 720 0 
L 0 0 
L 0 360 
z
" style="fill: none"/>
  </g>
  <g id="axes_1">
   <g id="patch_2">
    <path d="M 90 320.4 
L 343.636364 320.4 
L 343.636364 43.2 
L 90 43.2 
L 90 320.4 
z
" style="fill: none"/>
   </g>
   <g id="PolyCollection_1">
    <path d="M 101.528926 -87.169534 
L 101.528926 82.748652 
L 103.316356 86.519907 
L 105.103786 90.295873 
L 106.891217 94.076553 
L 108.678647 97.862044 
L 110.466077 101.652543 
L 112.253508 105.448361 
L 114.040938 109.249932 
L 115.828368 113.057831 
L 117.615799 116.872784 
L 119.403229 120.695681 
L 121.190659 124.527585 
L 122.97809 128.369745 
L 124.76552 132.223587 
L 126.55295 136.090719 
L 128.340381 139.972897 
L 130.127811 143.871996 
L 131.915241 147.789937 
L 133.702672 151.728591 
L 135.490102 155.689645 
L 137.277532 159.674418 
L 139.064963 163.68364 
L 140.852393 167.717194 
L 142.639823 171.773846 
L 144.427254 175.850991 
L 146.214684 179.944456 
L 148.002114 184.048399 
L 149.789544 188.155352 
L 151.576975 192.256395 
L 153.364405 196.341483 
L 155.151835 200.399852 
L 156.939266 204.420477 
L 158.726696 208.392512 
L 160.514126 212.305669 
L 162.301557 216.150514 
L 164.088987 219.91866 
L 165.876417 223.602873 
L 167.663848 227.197107 
L 169.451278 230.696473 
L 171.238708 234.09718 
L 173.026139 237.39645 
L 174.813569 240.59242 
L 176.600999 243.684043 
L 178.38843 246.670998 
L 180.17586 249.5536 
L 181.96329 252.332717 
L 183.750721 255.009705 
L 185.538151 257.586339 
L 187.325581 260.064761 
L 189.113012 262.44743 
L 190.900442 264.737076 
L 192.687872 266.936664 
L 194.475303 269.049354 
L 196.262733 271.078469 
L 198.050163 273.027462 
L 199.837594 274.899884 
L 201.625024 276.699347 
L 203.412454 278.429498 
L 205.199885 280.093976 
L 206.987315 281.69638 
L 208.774745 283.240231 
L 210.562176 284.72893 
L 212.349606 286.165721 
L 214.137036 287.553653 
L 215.924467 288.895542 
L 217.711897 290.193939 
L 219.499327 291.451099 
L 221.286758 292.668965 
L 223.074188 293.849151 
L 224.861618 294.992937 
L 226.649049 296.101277 
L 228.436479 297.174808 
L 230.223909 298.213876 
L 232.01134 299.218564 
L 233.79877 300.188729 
L 235.5862 301.12404 
L 237.373631 302.024025 
L 239.161061 302.888112 
L 240.948491 303.715677 
L 242.735922 304.50609 
L 244.523352 305.258761 
L 246.310782 305.973184 
L 248.098213 306.648983 
L 249.885643 307.285962 
L 251.673073 307.88415 
L 253.460504 308.443859 
L 255.247934 308.965737 
L 257.035364 309.45084 
L 258.822795 309.900703 
L 260.610225 310.317428 
L 262.397655 310.703788 
L 264.185086 311.063333 
L 265.972516 311.40053 
L 267.759946 311.720898 
L 269.547377 312.03116 
L 271.334807 312.339395 
L 273.122237 312.655156 
L 274.909667 312.98956 
L 276.697098 313.355283 
L 278.484528 313.766441 
L 280.271958 314.238308 
L 282.059389 314.786862 
L 283.846819 315.428161 
L 285.634249 316.177622 
L 287.42168 317.049301 
L 289.20911 318.055305 
L 290.99654 319.205428 
L 292.783971 320.507078 
L 294.571401 321.965454 
L 296.358831 323.583911 
L 298.146262 325.364411 
L 299.933692 327.307979 
L 301.721122 329.415094 
L 303.508553 331.686009 
L 305.295983 334.120975 
L 307.083413 336.72039 
L 308.870844 339.484888 
L 310.658274 342.415384 
L 312.445704 345.51309 
L 314.233135 348.779504 
L 316.020565 352.2164 
L 317.807995 355.8258 
L 319.595426 359.609953 
L 321.382856 363.571308 
L 323.170286 367.712491 
L 324.957717 372.036284 
L 326.745147 376.545605 
L 328.532577 381.24349 
L 330.320008 386.133078 
L 332.107438 391.217599 
L 332.107438 241.82231 
L 332.107438 241.82231 
L 330.320008 245.016792 
L 328.532577 248.100508 
L 326.745147 251.073572 
L 324.957717 253.936009 
L 323.170286 256.687741 
L 321.382856 259.328571 
L 319.595426 261.858167 
L 317.807995 264.27604 
L 316.020565 266.581525 
L 314.233135 268.773756 
L 312.445704 270.851641 
L 310.658274 272.813839 
L 308.870844 274.658735 
L 307.083413 276.384425 
L 305.295983 277.988709 
L 303.508553 279.469108 
L 301.721122 280.822906 
L 299.933692 282.047237 
L 298.146262 283.139241 
L 296.358831 284.096284 
L 294.571401 284.916275 
L 292.783971 285.59806 
L 290.99654 286.141882 
L 289.20911 286.549825 
L 287.42168 286.826182 
L 285.634249 286.977633 
L 283.846819 287.01317 
L 282.059389 286.943735 
L 280.271958 286.78163 
L 278.484528 286.539799 
L 276.697098 286.231105 
L 274.909667 285.867708 
L 273.122237 285.46061 
L 271.334807 285.019371 
L 269.547377 284.551994 
L 267.759946 284.06492 
L 265.972516 283.56311 
L 264.185086 283.050174 
L 262.397655 282.528518 
L 260.610225 281.999491 
L 258.822795 281.463533 
L 257.035364 280.920298 
L 255.247934 280.368777 
L 253.460504 279.807388 
L 251.673073 279.234074 
L 249.885643 278.646369 
L 248.098213 278.04147 
L 246.310782 277.416291 
L 244.523352 276.767521 
L 242.735922 276.091671 
L 240.948491 275.38512 
L 239.161061 274.644163 
L 237.373631 273.865056 
L 235.5862 273.04406 
L 233.79877 272.17749 
L 232.01134 271.261758 
L 230.223909 270.29342 
L 228.436479 269.269216 
L 226.649049 268.186116 
L 224.861618 267.041352 
L 223.074188 265.832447 
L 221.286758 264.557239 
L 219.499327 263.213895 
L 217.711897 261.800913 
L 215.924467 260.317121 
L 214.137036 258.761663 
L 212.349606 257.133972 
L 210.562176 255.433751 
L 208.774745 253.660934 
L 206.987315 251.815651 
L 205.199885 249.898189 
L 203.412454 247.908954 
L 201.625024 245.848429 
L 199.837594 243.717142 
L 198.050163 241.515622 
L 196.262733 239.244369 
L 194.475303 236.903818 
L 192.687872 234.494308 
L 190.900442 232.016047 
L 189.113012 229.469082 
L 187.325581 226.853263 
L 185.538151 224.168205 
L 183.750721 221.413252 
L 181.96329 218.587432 
L 180.17586 215.689407 
L 178.38843 212.717416 
L 176.600999 209.669215 
L 174.813569 206.542003 
L 173.026139 203.332344 
L 171.238708 200.036078 
L 169.451278 196.648227 
L 167.663848 193.162899 
L 165.876417 189.573186 
L 164.088987 185.871089 
L 162.301557 182.047443 
L 160.514126 178.091902 
L 158.726696 173.992965 
L 156.939266 169.738082 
L 155.151835 165.313851 
L 153.364405 160.706311 
L 151.576975 155.901324 
L 149.789544 150.885012 
L 148.002114 145.644212 
L 146.214684 140.166893 
L 144.427254 134.44247 
L 142.639823 128.461989 
L 140.852393 122.218161 
L 139.064963 115.705267 
L 137.277532 108.918958 
L 135.490102 101.856003 
L 133.702672 94.514017 
L 131.915241 86.891206 
L 130.127811 78.986141 
L 128.340381 70.797579 
L 126.55295 62.324327 
L 124.76552 53.565143 
L 122.97809 44.518673 
L 121.190659 35.183407 
L 119.403229 25.557658 
L 117.615799 15.63956 
L 115.828368 5.427062 
L 114.040938 -5.082061 
L 112.253508 -15.890198 
L 110.466077 -26.999887 
L 108.678647 -38.41381 
L 106.891217 -50.134769 
L 105.103786 -62.165681 
L 103.316356 -74.509567 
L 101.528926 -87.169534 
z
" clip-path="url(#p50ab1c1043)" style="fill: #1f77b4; fill-opacity: 0.3"/>
   </g>
   <g id="matplotlib.axis_1">
    <g id="xtick_1">
     <g id="line2d_1">
      <defs>
       <path id="m0db127695c" d="M 0 0 
L 0 3.5 
" style="stroke: #000000; stroke-width: 0.8"/>
      </defs>
      <g>
       <use xlink:href="#m0db127695c" x="134.468713" y="320.4" style="stroke: #000000; stroke-width: 0.8"/>
      </g>
     </g>
     <g id="text_1">
      <!-- 1900 -->
      <g transform="translate(106.473713 344.116562) scale(0.22 -0.22)">
       <defs>
        <path id="DejaVuSans-31" d="M 794 531 
L 1825 531 
L 1825 4091 
L 703 3866 
L 703 4441 
L 1819 4666 
L 2450 4666 
L 2450 531 
L 3481 531 
L 3481 0 
L 794 0 
L 794 531 
z
" transform="scale(0.015625)"/>
        <path id="DejaVuSans-39" d="M 703 97 
L 703 672 
Q 941 559 1184 500 
Q 1428 441 1663 441 
Q 2288 441 2617 861 
Q 2947 1281 2994 2138 
Q 2813 1869 2534 1725 
Q 2256 1581 1919 1581 
Q 1219 1581 811 2004 
Q 403 2428 403 3163 
Q 403 3881 828 4315 
Q 1253 4750 1959 4750 
Q 2769 4750 3195 4129 
Q 3622 3509 3622 2328 
Q 3622 1225 3098 567 
Q 2575 -91 1691 -91 
Q 1453 -91 1209 -44 
Q 966 3 703 97 
z
M 1959 2075 
Q 2384 2075 2632 2365 
Q 2881 2656 2881 3163 
Q 2881 3666 2632 3958 
Q 2384 4250 1959 4250 
Q 1534 4250 1286 3958 
Q 1038 3666 1038 3163 
Q 1038 2656 1286 2365 
Q 1534 2075 1959 2075 
z
" transform="scale(0.015625)"/>
        <path id="DejaVuSans-30" d="M 2034 4250 
Q 1547 4250 1301 3770 
Q 1056 3291 1056 2328 
Q 1056 1369 1301 889 
Q 1547 409 2034 409 
Q 2525 409 2770 889 
Q 3016 1369 3016 2328 
Q 3016 3291 2770 3770 
Q 2525 4250 2034 4250 
z
M 2034 4750 
Q 2819 4750 3233 4129 
Q 3647 3509 3647 2328 
Q 3647 1150 3233 529 
Q 2819 -91 2034 -91 
Q 1250 -91 836 529 
Q 422 1150 422 2328 
Q 422 3509 836 4129 
Q 1250 4750 2034 4750 
z
" transform="scale(0.015625)"/>
       </defs>
       <use xlink:href="#DejaVuSans-31"/>
       <use xlink:href="#DejaVuSans-39" x="63.623047"/>
       <use xlink:href="#DejaVuSans-30" x="127.246094"/>
       <use xlink:href="#DejaVuSans-30" x="190.869141"/>
      </g>
     </g>
    </g>
    <g id="xtick_2">
     <g id="line2d_2">
      <g>
       <use xlink:href="#m0db127695c" x="271.717828" y="320.4" style="stroke: #000000; stroke-width: 0.8"/>
      </g>
     </g>
     <g id="text_2">
      <!-- 2000 -->
      <g transform="translate(243.722828 344.116562) scale(0.22 -0.22)">
       <defs>
        <path id="DejaVuSans-32" d="M 1228 531 
L 3431 531 
L 3431 0 
L 469 0 
L 469 531 
Q 828 903 1448 1529 
Q 2069 2156 2228 2338 
Q 2531 2678 2651 2914 
Q 2772 3150 2772 3378 
Q 2772 3750 2511 3984 
Q 2250 4219 1831 4219 
Q 1534 4219 1204 4116 
Q 875 4013 500 3803 
L 500 4441 
Q 881 4594 1212 4672 
Q 1544 4750 1819 4750 
Q 2544 4750 2975 4387 
Q 3406 4025 3406 3419 
Q 3406 3131 3298 2873 
Q 3191 2616 2906 2266 
Q 2828 2175 2409 1742 
Q 1991 1309 1228 531 
z
" transform="scale(0.015625)"/>
       </defs>
       <use xlink:href="#DejaVuSans-32"/>
       <use xlink:href="#DejaVuSans-30" x="63.623047"/>
       <use xlink:href="#DejaVuSans-30" x="127.246094"/>
       <use xlink:href="#DejaVuSans-30" x="190.869141"/>
      </g>
     </g>
    </g>
   </g>
   <g id="matplotlib.axis_2">
    <g id="ytick_1">
     <g id="line2d_3">
      <defs>
       <path id="m9c014bceb0" d="M 0 0 
L -3.5 0 
" style="stroke: #000000; stroke-width: 0.8"/>
      </defs>
      <g>
       <use xlink:href="#m9c014bceb0" x="90" y="307.393025" style="stroke: #000000; stroke-width: 0.8"/>
      </g>
     </g>
     <g id="text_3">
      <!-- 3.0 -->
      <g transform="translate(48.013125 315.751307) scale(0.22 -0.22)">
       <defs>
        <path id="DejaVuSans-33" d="M 2597 2516 
Q 3050 2419 3304 2112 
Q 3559 1806 3559 1356 
Q 3559 666 3084 287 
Q 2609 -91 1734 -91 
Q 1441 -91 1130 -33 
Q 819 25 488 141 
L 488 750 
Q 750 597 1062 519 
Q 1375 441 1716 441 
Q 2309 441 2620 675 
Q 2931 909 2931 1356 
Q 2931 1769 2642 2001 
Q 2353 2234 1838 2234 
L 1294 2234 
L 1294 2753 
L 1863 2753 
Q 2328 2753 2575 2939 
Q 2822 3125 2822 3475 
Q 2822 3834 2567 4026 
Q 2313 4219 1838 4219 
Q 1578 4219 1281 4162 
Q 984 4106 628 3988 
L 628 4550 
Q 988 4650 1302 4700 
Q 1616 4750 1894 4750 
Q 2613 4750 3031 4423 
Q 3450 4097 3450 3541 
Q 3450 3153 3228 2886 
Q 3006 2619 2597 2516 
z
" transform="scale(0.015625)"/>
        <path id="DejaVuSans-2e" d="M 684 794 
L 1344 794 
L 1344 0 
L 684 0 
L 684 794 
z
" transform="scale(0.015625)"/>
       </defs>
       <use xlink:href="#DejaVuSans-33"/>
       <use xlink:href="#DejaVuSans-2e" x="63.623047"/>
       <use xlink:href="#DejaVuSans-30" x="95.410156"/>
      </g>
     </g>
    </g>
    <g id="ytick_2">
     <g id="line2d_4">
      <g>
       <use xlink:href="#m9c014bceb0" x="90" y="250.781056" style="stroke: #000000; stroke-width: 0.8"/>
      </g>
     </g>
     <g id="text_4">
      <!-- 3.5 -->
      <g transform="translate(48.013125 259.139338) scale(0.22 -0.22)">
       <defs>
        <path id="DejaVuSans-35" d="M 691 4666 
L 3169 4666 
L 3169 4134 
L 1269 4134 
L 1269 2991 
Q 1406 3038 1543 3061 
Q 1681 3084 1819 3084 
Q 2600 3084 3056 2656 
Q 3513 2228 3513 1497 
Q 3513 744 3044 326 
Q 2575 -91 1722 -91 
Q 1428 -91 1123 -41 
Q 819 9 494 109 
L 494 744 
Q 775 591 1075 516 
Q 1375 441 1709 441 
Q 2250 441 2565 725 
Q 2881 1009 2881 1497 
Q 2881 1984 2565 2268 
Q 2250 2553 1709 2553 
Q 1456 2553 1204 2497 
Q 953 2441 691 2322 
L 691 4666 
z
" transform="scale(0.015625)"/>
       </defs>
       <use xlink:href="#DejaVuSans-33"/>
       <use xlink:href="#DejaVuSans-2e" x="63.623047"/>
       <use xlink:href="#DejaVuSans-35" x="95.410156"/>
      </g>
     </g>
    </g>
    <g id="ytick_3">
     <g id="line2d_5">
      <g>
       <use xlink:href="#m9c014bceb0" x="90" y="194.169087" style="stroke: #000000; stroke-width: 0.8"/>
      </g>
     </g>
     <g id="text_5">
      <!-- 4.0 -->
      <g transform="translate(48.013125 202.527369) scale(0.22 -0.22)">
       <defs>
        <path id="DejaVuSans-34" d="M 2419 4116 
L 825 1625 
L 2419 1625 
L 2419 4116 
z
M 2253 4666 
L 3047 4666 
L 3047 1625 
L 3713 1625 
L 3713 1100 
L 3047 1100 
L 3047 0 
L 2419 0 
L 2419 1100 
L 313 1100 
L 313 1709 
L 2253 4666 
z
" transform="scale(0.015625)"/>
       </defs>
       <use xlink:href="#DejaVuSans-34"/>
       <use xlink:href="#DejaVuSans-2e" x="63.623047"/>
       <use xlink:href="#DejaVuSans-30" x="95.410156"/>
      </g>
     </g>
    </g>
    <g id="ytick_4">
     <g id="line2d_6">
      <g>
       <use xlink:href="#m9c014bceb0" x="90" y="137.557118" style="stroke: #000000; stroke-width: 0.8"/>
      </g>
     </g>
     <g id="text_6">
      <!-- 4.5 -->
      <g transform="translate(48.013125 145.9154) scale(0.22 -0.22)">
       <use xlink:href="#DejaVuSans-34"/>
       <use xlink:href="#DejaVuSans-2e" x="63.623047"/>
       <use xlink:href="#DejaVuSans-35" x="95.410156"/>
      </g>
     </g>
    </g>
    <g id="ytick_5">
     <g id="line2d_7">
      <g>
       <use xlink:href="#m9c014bceb0" x="90" y="80.94515" style="stroke: #000000; stroke-width: 0.8"/>
      </g>
     </g>
     <g id="text_7">
      <!-- 5.0 -->
      <g transform="translate(48.013125 89.303431) scale(0.22 -0.22)">
       <use xlink:href="#DejaVuSans-35"/>
       <use xlink:href="#DejaVuSans-2e" x="63.623047"/>
       <use xlink:href="#DejaVuSans-30" x="95.410156"/>
      </g>
     </g>
    </g>
   </g>
   <g id="line2d_8">
    <defs>
     <path id="mb8cf4131bd" d="M 0 3 
C 0.795609 3 1.55874 2.683901 2.12132 2.12132 
C 2.683901 1.55874 3 0.795609 3 0 
C 3 -0.795609 2.683901 -1.55874 2.12132 -2.12132 
C 1.55874 -2.683901 0.795609 -3 0 -3 
C -0.795609 -3 -1.55874 -2.683901 -2.12132 -2.12132 
C -2.683901 -1.55874 -3 -0.795609 -3 0 
C -3 0.795609 -2.683901 1.55874 -2.12132 2.12132 
C -1.55874 2.683901 -0.795609 3 0 3 
z
" style="stroke: #ff0000"/>
    </defs>
    <g clip-path="url(#p50ab1c1043)">
     <use xlink:href="#mb8cf4131bd" x="139.958678" y="55.8" style="fill: #ff0000; stroke: #ff0000"/>
     <use xlink:href="#mb8cf4131bd" x="260.737898" y="289.15072" style="fill: #ff0000; stroke: #ff0000"/>
     <use xlink:href="#mb8cf4131bd" x="244.268005" y="295.411869" style="fill: #ff0000; stroke: #ff0000"/>
     <use xlink:href="#mb8cf4131bd" x="200.348288" y="231.521314" style="fill: #ff0000; stroke: #ff0000"/>
     <use xlink:href="#mb8cf4131bd" x="178.38843" y="240.269034" style="fill: #ff0000; stroke: #ff0000"/>
     <use xlink:href="#mb8cf4131bd" x="304.657615" y="307.8" style="fill: #ff0000; stroke: #ff0000"/>
     <use xlink:href="#mb8cf4131bd" x="266.227863" y="291.252677" style="fill: #ff0000; stroke: #ff0000"/>
     <use xlink:href="#mb8cf4131bd" x="299.167651" y="301.896631" style="fill: #ff0000; stroke: #ff0000"/>
     <use xlink:href="#mb8cf4131bd" x="222.308146" y="292.361795" style="fill: #ff0000; stroke: #ff0000"/>
     <use xlink:href="#mb8cf4131bd" x="150.938607" y="205.115946" style="fill: #ff0000; stroke: #ff0000"/>
     <use xlink:href="#mb8cf4131bd" x="271.717828" y="297.737439" style="fill: #ff0000; stroke: #ff0000"/>
     <use xlink:href="#mb8cf4131bd" x="211.328217" y="257.979142" style="fill: #ff0000; stroke: #ff0000"/>
     <use xlink:href="#mb8cf4131bd" x="293.677686" y="301.628296" style="fill: #ff0000; stroke: #ff0000"/>
     <use xlink:href="#mb8cf4131bd" x="183.878394" y="246.387071" style="fill: #ff0000; stroke: #ff0000"/>
     <use xlink:href="#mb8cf4131bd" x="249.757969" y="299.973564" style="fill: #ff0000; stroke: #ff0000"/>
     <use xlink:href="#mb8cf4131bd" x="227.798111" y="270.233105" style="fill: #ff0000; stroke: #ff0000"/>
     <use xlink:href="#mb8cf4131bd" x="167.408501" y="214.034819" style="fill: #ff0000; stroke: #ff0000"/>
     <use xlink:href="#mb8cf4131bd" x="233.288076" y="292.01296" style="fill: #ff0000; stroke: #ff0000"/>
     <use xlink:href="#mb8cf4131bd" x="288.187721" y="303.551363" style="fill: #ff0000; stroke: #ff0000"/>
     <use xlink:href="#mb8cf4131bd" x="255.247934" y="296.798266" style="fill: #ff0000; stroke: #ff0000"/>
     <use xlink:href="#mb8cf4131bd" x="277.207792" y="295.769649" style="fill: #ff0000; stroke: #ff0000"/>
     <use xlink:href="#mb8cf4131bd" x="128.978749" y="140.859483" style="fill: #ff0000; stroke: #ff0000"/>
     <use xlink:href="#mb8cf4131bd" x="282.697757" y="307.531665" style="fill: #ff0000; stroke: #ff0000"/>
     <use xlink:href="#mb8cf4131bd" x="172.898465" y="236.646512" style="fill: #ff0000; stroke: #ff0000"/>
    </g>
   </g>
   <g id="line2d_9">
    <defs>
     <path id="m4a92925695" d="M 0 3 
C 0.795609 3 1.55874 2.683901 2.12132 2.12132 
C 2.683901 1.55874 3 0.795609 3 0 
C 3 -0.795609 2.683901 -1.55874 2.12132 -2.12132 
C 1.55874 -2.683901 0.795609 -3 0 -3 
C -0.795609 -3 -1.55874 -2.683901 -2.12132 -2.12132 
C -2.683901 -1.55874 -3 -0.795609 -3 0 
C -3 0.795609 -2.683901 1.55874 -2.12132 2.12132 
C -1.55874 2.683901 -0.795609 3 0 3 
z
" style="stroke: #00ff00"/>
    </defs>
    <g clip-path="url(#p50ab1c1043)">
     <use xlink:href="#m4a92925695" x="145.448642" y="176.655759" style="fill: #00ff00; stroke: #00ff00"/>
     <use xlink:href="#m4a92925695" x="238.77804" y="298.452999" style="fill: #00ff00; stroke: #00ff00"/>
     <use xlink:href="#m4a92925695" x="161.918536" y="242.910558" style="fill: #00ff00; stroke: #00ff00"/>
     <use xlink:href="#m4a92925695" x="134.468713" y="141.550611" style="fill: #00ff00; stroke: #00ff00"/>
     <use xlink:href="#m4a92925695" x="216.818182" y="284.088134" style="fill: #00ff00; stroke: #00ff00"/>
     <use xlink:href="#m4a92925695" x="205.838253" y="263.202729" style="fill: #00ff00; stroke: #00ff00"/>
    </g>
   </g>
   <g id="line2d_10">
    <path d="M 101.792275 -1 
L 106.891217 21.970892 
L 112.253508 44.779082 
L 117.615799 66.256172 
L 122.97809 86.444209 
L 128.340381 105.385238 
L 131.915241 117.340571 
L 135.490102 128.772824 
L 139.064963 139.694453 
L 142.639823 150.117918 
L 146.214684 160.055674 
L 149.789544 169.520182 
L 153.364405 178.523897 
L 156.939266 187.079279 
L 160.514126 195.198786 
L 164.088987 202.894874 
L 167.663848 210.180003 
L 171.238708 217.066629 
L 174.813569 223.567211 
L 178.38843 229.694207 
L 181.96329 235.460075 
L 185.538151 240.877272 
L 189.113012 245.958256 
L 192.687872 250.715486 
L 196.262733 255.161419 
L 199.837594 259.308513 
L 203.412454 263.169226 
L 206.987315 266.756016 
L 210.562176 270.08134 
L 214.137036 273.157658 
L 217.711897 275.997426 
L 221.286758 278.613102 
L 224.861618 281.017145 
L 228.436479 283.222012 
L 232.01134 285.240161 
L 237.373631 287.944541 
L 242.735922 290.298881 
L 248.098213 292.345226 
L 253.460504 294.125624 
L 258.822795 295.682118 
L 265.972516 297.48182 
L 274.909667 299.428634 
L 298.146262 304.251826 
L 305.295983 306.054842 
L 310.658274 307.614612 
L 316.020565 309.398962 
L 321.382856 311.44994 
L 326.745147 313.809588 
L 332.107438 316.519954 
L 332.107438 316.519954 
" clip-path="url(#p50ab1c1043)" style="fill: none; stroke: #0000ff; stroke-width: 2; stroke-linecap: square"/>
   </g>
   <g id="patch_3">
    <path d="M 90 320.4 
L 90 43.2 
" style="fill: none; stroke: #000000; stroke-width: 0.8; stroke-linejoin: miter; stroke-linecap: square"/>
   </g>
   <g id="patch_4">
    <path d="M 343.636364 320.4 
L 343.636364 43.2 
" style="fill: none; stroke: #000000; stroke-width: 0.8; stroke-linejoin: miter; stroke-linecap: square"/>
   </g>
   <g id="patch_5">
    <path d="M 90 320.4 
L 343.636364 320.4 
" style="fill: none; stroke: #000000; stroke-width: 0.8; stroke-linejoin: miter; stroke-linecap: square"/>
   </g>
   <g id="patch_6">
    <path d="M 90 43.2 
L 343.636364 43.2 
" style="fill: none; stroke: #000000; stroke-width: 0.8; stroke-linejoin: miter; stroke-linecap: square"/>
   </g>
  </g>
  <g id="axes_2">
   <g id="patch_7">
    <path d="M 394.363636 320.4 
L 648 320.4 
L 648 43.2 
L 394.363636 43.2 
L 394.363636 320.4 
z
" style="fill: none"/>
   </g>
   <g id="matplotlib.axis_3">
    <g id="xtick_3">
     <g id="line2d_11">
      <g>
       <use xlink:href="#m0db127695c" x="394.363636" y="320.4" style="stroke: #000000; stroke-width: 0.8"/>
      </g>
     </g>
     <g id="text_8">
      <!-- 0 -->
      <g transform="translate(387.364886 344.116562) scale(0.22 -0.22)">
       <use xlink:href="#DejaVuSans-30"/>
      </g>
     </g>
    </g>
    <g id="xtick_4">
     <g id="line2d_12">
      <g>
       <use xlink:href="#m0db127695c" x="558" y="320.4" style="stroke: #000000; stroke-width: 0.8"/>
      </g>
     </g>
     <g id="text_9">
      <!-- 20 -->
      <g transform="translate(544.0025 344.116562) scale(0.22 -0.22)">
       <use xlink:href="#DejaVuSans-32"/>
       <use xlink:href="#DejaVuSans-30" x="63.623047"/>
      </g>
     </g>
    </g>
    <g id="text_10">
     <!-- number -->
     <g transform="translate(482.153693 367.88875) scale(0.2 -0.2)">
      <defs>
       <path id="DejaVuSans-6e" d="M 3513 2113 
L 3513 0 
L 2938 0 
L 2938 2094 
Q 2938 2591 2744 2837 
Q 2550 3084 2163 3084 
Q 1697 3084 1428 2787 
Q 1159 2491 1159 1978 
L 1159 0 
L 581 0 
L 581 3500 
L 1159 3500 
L 1159 2956 
Q 1366 3272 1645 3428 
Q 1925 3584 2291 3584 
Q 2894 3584 3203 3211 
Q 3513 2838 3513 2113 
z
" transform="scale(0.015625)"/>
       <path id="DejaVuSans-75" d="M 544 1381 
L 544 3500 
L 1119 3500 
L 1119 1403 
Q 1119 906 1312 657 
Q 1506 409 1894 409 
Q 2359 409 2629 706 
Q 2900 1003 2900 1516 
L 2900 3500 
L 3475 3500 
L 3475 0 
L 2900 0 
L 2900 538 
Q 2691 219 2414 64 
Q 2138 -91 1772 -91 
Q 1169 -91 856 284 
Q 544 659 544 1381 
z
M 1991 3584 
L 1991 3584 
z
" transform="scale(0.015625)"/>
       <path id="DejaVuSans-6d" d="M 3328 2828 
Q 3544 3216 3844 3400 
Q 4144 3584 4550 3584 
Q 5097 3584 5394 3201 
Q 5691 2819 5691 2113 
L 5691 0 
L 5113 0 
L 5113 2094 
Q 5113 2597 4934 2840 
Q 4756 3084 4391 3084 
Q 3944 3084 3684 2787 
Q 3425 2491 3425 1978 
L 3425 0 
L 2847 0 
L 2847 2094 
Q 2847 2600 2669 2842 
Q 2491 3084 2119 3084 
Q 1678 3084 1418 2786 
Q 1159 2488 1159 1978 
L 1159 0 
L 581 0 
L 581 3500 
L 1159 3500 
L 1159 2956 
Q 1356 3278 1631 3431 
Q 1906 3584 2284 3584 
Q 2666 3584 2933 3390 
Q 3200 3197 3328 2828 
z
" transform="scale(0.015625)"/>
       <path id="DejaVuSans-62" d="M 3116 1747 
Q 3116 2381 2855 2742 
Q 2594 3103 2138 3103 
Q 1681 3103 1420 2742 
Q 1159 2381 1159 1747 
Q 1159 1113 1420 752 
Q 1681 391 2138 391 
Q 2594 391 2855 752 
Q 3116 1113 3116 1747 
z
M 1159 2969 
Q 1341 3281 1617 3432 
Q 1894 3584 2278 3584 
Q 2916 3584 3314 3078 
Q 3713 2572 3713 1747 
Q 3713 922 3314 415 
Q 2916 -91 2278 -91 
Q 1894 -91 1617 61 
Q 1341 213 1159 525 
L 1159 0 
L 581 0 
L 581 4863 
L 1159 4863 
L 1159 2969 
z
" transform="scale(0.015625)"/>
       <path id="DejaVuSans-65" d="M 3597 1894 
L 3597 1613 
L 953 1613 
Q 991 1019 1311 708 
Q 1631 397 2203 397 
Q 2534 397 2845 478 
Q 3156 559 3463 722 
L 3463 178 
Q 3153 47 2828 -22 
Q 2503 -91 2169 -91 
Q 1331 -91 842 396 
Q 353 884 353 1716 
Q 353 2575 817 3079 
Q 1281 3584 2069 3584 
Q 2775 3584 3186 3129 
Q 3597 2675 3597 1894 
z
M 3022 2063 
Q 3016 2534 2758 2815 
Q 2500 3097 2075 3097 
Q 1594 3097 1305 2825 
Q 1016 2553 972 2059 
L 3022 2063 
z
" transform="scale(0.015625)"/>
       <path id="DejaVuSans-72" d="M 2631 2963 
Q 2534 3019 2420 3045 
Q 2306 3072 2169 3072 
Q 1681 3072 1420 2755 
Q 1159 2438 1159 1844 
L 1159 0 
L 581 0 
L 581 3500 
L 1159 3500 
L 1159 2956 
Q 1341 3275 1631 3429 
Q 1922 3584 2338 3584 
Q 2397 3584 2469 3576 
Q 2541 3569 2628 3553 
L 2631 2963 
z
" transform="scale(0.015625)"/>
      </defs>
      <use xlink:href="#DejaVuSans-6e"/>
      <use xlink:href="#DejaVuSans-75" x="63.378906"/>
      <use xlink:href="#DejaVuSans-6d" x="126.757812"/>
      <use xlink:href="#DejaVuSans-62" x="224.169922"/>
      <use xlink:href="#DejaVuSans-65" x="287.646484"/>
      <use xlink:href="#DejaVuSans-72" x="349.169922"/>
     </g>
    </g>
   </g>
   <g id="matplotlib.axis_4">
    <g id="ytick_6">
     <g id="line2d_13">
      <g>
       <use xlink:href="#m9c014bceb0" x="394.363636" y="320.4" style="stroke: #000000; stroke-width: 0.8"/>
      </g>
     </g>
     <g id="text_11">
      <!-- 0.2 -->
      <g transform="translate(352.376761 328.758281) scale(0.22 -0.22)">
       <use xlink:href="#DejaVuSans-30"/>
       <use xlink:href="#DejaVuSans-2e" x="63.623047"/>
       <use xlink:href="#DejaVuSans-32" x="95.410156"/>
      </g>
     </g>
    </g>
    <g id="ytick_7">
     <g id="line2d_14">
      <g>
       <use xlink:href="#m9c014bceb0" x="394.363636" y="251.1" style="stroke: #000000; stroke-width: 0.8"/>
      </g>
     </g>
     <g id="text_12">
      <!-- 0.3 -->
      <g transform="translate(352.376761 259.458281) scale(0.22 -0.22)">
       <use xlink:href="#DejaVuSans-30"/>
       <use xlink:href="#DejaVuSans-2e" x="63.623047"/>
       <use xlink:href="#DejaVuSans-33" x="95.410156"/>
      </g>
     </g>
    </g>
    <g id="ytick_8">
     <g id="line2d_15">
      <g>
       <use xlink:href="#m9c014bceb0" x="394.363636" y="181.8" style="stroke: #000000; stroke-width: 0.8"/>
      </g>
     </g>
     <g id="text_13">
      <!-- 0.4 -->
      <g transform="translate(352.376761 190.158281) scale(0.22 -0.22)">
       <use xlink:href="#DejaVuSans-30"/>
       <use xlink:href="#DejaVuSans-2e" x="63.623047"/>
       <use xlink:href="#DejaVuSans-34" x="95.410156"/>
      </g>
     </g>
    </g>
    <g id="ytick_9">
     <g id="line2d_16">
      <g>
       <use xlink:href="#m9c014bceb0" x="394.363636" y="112.5" style="stroke: #000000; stroke-width: 0.8"/>
      </g>
     </g>
     <g id="text_14">
      <!-- 0.5 -->
      <g transform="translate(352.376761 120.858281) scale(0.22 -0.22)">
       <use xlink:href="#DejaVuSans-30"/>
       <use xlink:href="#DejaVuSans-2e" x="63.623047"/>
       <use xlink:href="#DejaVuSans-35" x="95.410156"/>
      </g>
     </g>
    </g>
    <g id="ytick_10">
     <g id="line2d_17">
      <g>
       <use xlink:href="#m9c014bceb0" x="394.363636" y="43.2" style="stroke: #000000; stroke-width: 0.8"/>
      </g>
     </g>
     <g id="text_15">
      <!-- 0.6 -->
      <g transform="translate(352.376761 51.558281) scale(0.22 -0.22)">
       <defs>
        <path id="DejaVuSans-36" d="M 2113 2584 
Q 1688 2584 1439 2293 
Q 1191 2003 1191 1497 
Q 1191 994 1439 701 
Q 1688 409 2113 409 
Q 2538 409 2786 701 
Q 3034 994 3034 1497 
Q 3034 2003 2786 2293 
Q 2538 2584 2113 2584 
z
M 3366 4563 
L 3366 3988 
Q 3128 4100 2886 4159 
Q 2644 4219 2406 4219 
Q 1781 4219 1451 3797 
Q 1122 3375 1075 2522 
Q 1259 2794 1537 2939 
Q 1816 3084 2150 3084 
Q 2853 3084 3261 2657 
Q 3669 2231 3669 1497 
Q 3669 778 3244 343 
Q 2819 -91 2113 -91 
Q 1303 -91 875 529 
Q 447 1150 447 2328 
Q 447 3434 972 4092 
Q 1497 4750 2381 4750 
Q 2619 4750 2861 4703 
Q 3103 4656 3366 4563 
z
" transform="scale(0.015625)"/>
       </defs>
       <use xlink:href="#DejaVuSans-30"/>
       <use xlink:href="#DejaVuSans-2e" x="63.623047"/>
       <use xlink:href="#DejaVuSans-36" x="95.410156"/>
      </g>
     </g>
    </g>
   </g>
   <g id="line2d_18">
    <g clip-path="url(#p2ff88b863a)"/>
   </g>
   <g id="line2d_19">
    <g clip-path="url(#p2ff88b863a)"/>
   </g>
   <g id="line2d_20">
    <g clip-path="url(#p2ff88b863a)"/>
   </g>
   <g id="line2d_21">
    <g clip-path="url(#p2ff88b863a)"/>
   </g>
   <g id="line2d_22">
    <g clip-path="url(#p2ff88b863a)"/>
   </g>
   <g id="line2d_23">
    <g clip-path="url(#p2ff88b863a)">
     <use xlink:href="#mb8cf4131bd" x="402.545455" y="85.804335" style="fill: #ff0000; stroke: #ff0000"/>
    </g>
   </g>
   <g id="line2d_24">
    <g clip-path="url(#p2ff88b863a)"/>
   </g>
   <g id="line2d_25">
    <g clip-path="url(#p2ff88b863a)"/>
   </g>
   <g id="line2d_26">
    <g clip-path="url(#p2ff88b863a)"/>
   </g>
   <g id="line2d_27">
    <g clip-path="url(#p2ff88b863a)"/>
   </g>
   <g id="line2d_28">
    <g clip-path="url(#p2ff88b863a)"/>
   </g>
   <g id="line2d_29">
    <g clip-path="url(#p2ff88b863a)">
     <use xlink:href="#mb8cf4131bd" x="410.727273" y="254.676385" style="fill: #ff0000; stroke: #ff0000"/>
    </g>
   </g>
   <g id="line2d_30">
    <g clip-path="url(#p2ff88b863a)"/>
   </g>
   <g id="line2d_31">
    <g clip-path="url(#p2ff88b863a)"/>
   </g>
   <g id="line2d_32">
    <g clip-path="url(#p2ff88b863a)"/>
   </g>
   <g id="line2d_33">
    <g clip-path="url(#p2ff88b863a)"/>
   </g>
   <g id="line2d_34">
    <g clip-path="url(#p2ff88b863a)"/>
   </g>
   <g id="line2d_35">
    <g clip-path="url(#p2ff88b863a)">
     <use xlink:href="#mb8cf4131bd" x="418.909091" y="298.688266" style="fill: #ff0000; stroke: #ff0000"/>
    </g>
   </g>
   <g id="line2d_36">
    <g clip-path="url(#p2ff88b863a)"/>
   </g>
   <g id="line2d_37">
    <g clip-path="url(#p2ff88b863a)"/>
   </g>
   <g id="line2d_38">
    <g clip-path="url(#p2ff88b863a)"/>
   </g>
   <g id="line2d_39">
    <g clip-path="url(#p2ff88b863a)"/>
   </g>
   <g id="patch_8">
    <path d="M 394.363636 320.4 
L 394.363636 43.2 
" style="fill: none; stroke: #000000; stroke-width: 0.8; stroke-linejoin: miter; stroke-linecap: square"/>
   </g>
   <g id="patch_9">
    <path d="M 648 320.4 
L 648 43.2 
" style="fill: none; stroke: #000000; stroke-width: 0.8; stroke-linejoin: miter; stroke-linecap: square"/>
   </g>
   <g id="patch_10">
    <path d="M 394.363636 320.4 
L 648 320.4 
" style="fill: none; stroke: #000000; stroke-width: 0.8; stroke-linejoin: miter; stroke-linecap: square"/>
   </g>
   <g id="patch_11">
    <path d="M 394.363636 43.2 
L 648 43.2 
" style="fill: none; stroke: #000000; stroke-width: 0.8; stroke-linejoin: miter; stroke-linecap: square"/>
   </g>
   <g id="text_16">
    <!-- 5-fold Cross Validation -->
    <g transform="translate(409.302131 37.2) scale(0.2 -0.2)">
     <defs>
      <path id="DejaVuSans-2d" d="M 313 2009 
L 1997 2009 
L 1997 1497 
L 313 1497 
L 313 2009 
z
" transform="scale(0.015625)"/>
      <path id="DejaVuSans-66" d="M 2375 4863 
L 2375 4384 
L 1825 4384 
Q 1516 4384 1395 4259 
Q 1275 4134 1275 3809 
L 1275 3500 
L 2222 3500 
L 2222 3053 
L 1275 3053 
L 1275 0 
L 697 0 
L 697 3053 
L 147 3053 
L 147 3500 
L 697 3500 
L 697 3744 
Q 697 4328 969 4595 
Q 1241 4863 1831 4863 
L 2375 4863 
z
" transform="scale(0.015625)"/>
      <path id="DejaVuSans-6f" d="M 1959 3097 
Q 1497 3097 1228 2736 
Q 959 2375 959 1747 
Q 959 1119 1226 758 
Q 1494 397 1959 397 
Q 2419 397 2687 759 
Q 2956 1122 2956 1747 
Q 2956 2369 2687 2733 
Q 2419 3097 1959 3097 
z
M 1959 3584 
Q 2709 3584 3137 3096 
Q 3566 2609 3566 1747 
Q 3566 888 3137 398 
Q 2709 -91 1959 -91 
Q 1206 -91 779 398 
Q 353 888 353 1747 
Q 353 2609 779 3096 
Q 1206 3584 1959 3584 
z
" transform="scale(0.015625)"/>
      <path id="DejaVuSans-6c" d="M 603 4863 
L 1178 4863 
L 1178 0 
L 603 0 
L 603 4863 
z
" transform="scale(0.015625)"/>
      <path id="DejaVuSans-64" d="M 2906 2969 
L 2906 4863 
L 3481 4863 
L 3481 0 
L 2906 0 
L 2906 525 
Q 2725 213 2448 61 
Q 2172 -91 1784 -91 
Q 1150 -91 751 415 
Q 353 922 353 1747 
Q 353 2572 751 3078 
Q 1150 3584 1784 3584 
Q 2172 3584 2448 3432 
Q 2725 3281 2906 2969 
z
M 947 1747 
Q 947 1113 1208 752 
Q 1469 391 1925 391 
Q 2381 391 2643 752 
Q 2906 1113 2906 1747 
Q 2906 2381 2643 2742 
Q 2381 3103 1925 3103 
Q 1469 3103 1208 2742 
Q 947 2381 947 1747 
z
" transform="scale(0.015625)"/>
      <path id="DejaVuSans-20" transform="scale(0.015625)"/>
      <path id="DejaVuSans-43" d="M 4122 4306 
L 4122 3641 
Q 3803 3938 3442 4084 
Q 3081 4231 2675 4231 
Q 1875 4231 1450 3742 
Q 1025 3253 1025 2328 
Q 1025 1406 1450 917 
Q 1875 428 2675 428 
Q 3081 428 3442 575 
Q 3803 722 4122 1019 
L 4122 359 
Q 3791 134 3420 21 
Q 3050 -91 2638 -91 
Q 1578 -91 968 557 
Q 359 1206 359 2328 
Q 359 3453 968 4101 
Q 1578 4750 2638 4750 
Q 3056 4750 3426 4639 
Q 3797 4528 4122 4306 
z
" transform="scale(0.015625)"/>
      <path id="DejaVuSans-73" d="M 2834 3397 
L 2834 2853 
Q 2591 2978 2328 3040 
Q 2066 3103 1784 3103 
Q 1356 3103 1142 2972 
Q 928 2841 928 2578 
Q 928 2378 1081 2264 
Q 1234 2150 1697 2047 
L 1894 2003 
Q 2506 1872 2764 1633 
Q 3022 1394 3022 966 
Q 3022 478 2636 193 
Q 2250 -91 1575 -91 
Q 1294 -91 989 -36 
Q 684 19 347 128 
L 347 722 
Q 666 556 975 473 
Q 1284 391 1588 391 
Q 1994 391 2212 530 
Q 2431 669 2431 922 
Q 2431 1156 2273 1281 
Q 2116 1406 1581 1522 
L 1381 1569 
Q 847 1681 609 1914 
Q 372 2147 372 2553 
Q 372 3047 722 3315 
Q 1072 3584 1716 3584 
Q 2034 3584 2315 3537 
Q 2597 3491 2834 3397 
z
" transform="scale(0.015625)"/>
      <path id="DejaVuSans-56" d="M 1831 0 
L 50 4666 
L 709 4666 
L 2188 738 
L 3669 4666 
L 4325 4666 
L 2547 0 
L 1831 0 
z
" transform="scale(0.015625)"/>
      <path id="DejaVuSans-61" d="M 2194 1759 
Q 1497 1759 1228 1600 
Q 959 1441 959 1056 
Q 959 750 1161 570 
Q 1363 391 1709 391 
Q 2188 391 2477 730 
Q 2766 1069 2766 1631 
L 2766 1759 
L 2194 1759 
z
M 3341 1997 
L 3341 0 
L 2766 0 
L 2766 531 
Q 2569 213 2275 61 
Q 1981 -91 1556 -91 
Q 1019 -91 701 211 
Q 384 513 384 1019 
Q 384 1609 779 1909 
Q 1175 2209 1959 2209 
L 2766 2209 
L 2766 2266 
Q 2766 2663 2505 2880 
Q 2244 3097 1772 3097 
Q 1472 3097 1187 3025 
Q 903 2953 641 2809 
L 641 3341 
Q 956 3463 1253 3523 
Q 1550 3584 1831 3584 
Q 2591 3584 2966 3190 
Q 3341 2797 3341 1997 
z
" transform="scale(0.015625)"/>
      <path id="DejaVuSans-69" d="M 603 3500 
L 1178 3500 
L 1178 0 
L 603 0 
L 603 3500 
z
M 603 4863 
L 1178 4863 
L 1178 4134 
L 603 4134 
L 603 4863 
z
" transform="scale(0.015625)"/>
      <path id="DejaVuSans-74" d="M 1172 4494 
L 1172 3500 
L 2356 3500 
L 2356 3053 
L 1172 3053 
L 1172 1153 
Q 1172 725 1289 603 
Q 1406 481 1766 481 
L 2356 481 
L 2356 0 
L 1766 0 
Q 1100 0 847 248 
Q 594 497 594 1153 
L 594 3053 
L 172 3053 
L 172 3500 
L 594 3500 
L 594 4494 
L 1172 4494 
z
" transform="scale(0.015625)"/>
     </defs>
     <use xlink:href="#DejaVuSans-35"/>
     <use xlink:href="#DejaVuSans-2d" x="63.623047"/>
     <use xlink:href="#DejaVuSans-66" x="99.707031"/>
     <use xlink:href="#DejaVuSans-6f" x="134.912109"/>
     <use xlink:href="#DejaVuSans-6c" x="196.09375"/>
     <use xlink:href="#DejaVuSans-64" x="223.876953"/>
     <use xlink:href="#DejaVuSans-20" x="287.353516"/>
     <use xlink:href="#DejaVuSans-43" x="319.140625"/>
     <use xlink:href="#DejaVuSans-72" x="388.964844"/>
     <use xlink:href="#DejaVuSans-6f" x="427.828125"/>
     <use xlink:href="#DejaVuSans-73" x="489.009766"/>
     <use xlink:href="#DejaVuSans-73" x="541.109375"/>
     <use xlink:href="#DejaVuSans-20" x="593.208984"/>
     <use xlink:href="#DejaVuSans-56" x="624.996094"/>
     <use xlink:href="#DejaVuSans-61" x="685.654297"/>
     <use xlink:href="#DejaVuSans-6c" x="746.933594"/>
     <use xlink:href="#DejaVuSans-69" x="774.716797"/>
     <use xlink:href="#DejaVuSans-64" x="802.5"/>
     <use xlink:href="#DejaVuSans-61" x="865.976562"/>
     <use xlink:href="#DejaVuSans-74" x="927.255859"/>
     <use xlink:href="#DejaVuSans-69" x="966.464844"/>
     <use xlink:href="#DejaVuSans-6f" x="994.248047"/>
     <use xlink:href="#DejaVuSans-6e" x="1055.429688"/>
    </g>
   </g>
  </g>
 </g>
 <defs>
  <clipPath id="p50ab1c1043">
   <rect x="90" y="43.2" width="253.636364" height="277.2"/>
  </clipPath>
  <clipPath id="p2ff88b863a">
   <rect x="394.363636" y="43.2" width="253.636364" height="277.2"/>
  </clipPath>
 </defs>
</svg>
