<svg xmlns="http://www.w3.org/2000/svg" height="800" width="1200" class="caLogoBrain oddSectionItem" viewBox="-15.8595 -25.465 137.449 152.79"><path d="M66.49 85.51h-1.51v3h-1.4v1.32h1.41V96a2.57 2.57 0 002.85 2.85 3.78 3.78 0 001.82-.43v-1.3a3.15 3.15 0 01-1.47.35 1.49 1.49 0 01-1.7-1.68v-5.9h3.21v-1.33h-3.21zM57.22 97l-3.67-8.42h-1.66l4.59 10.07c-.61 1.43-1.17 1.89-2.08 1.89a3.14 3.14 0 01-1.58-.38l-.51 1.19a4.59 4.59 0 002.15.51c1.52 0 2.5-.76 3.36-2.85l4.25-10.45h-1.6zm38.12-2.05c0 1.6-1.53 2.74-3.38 2.74-1.37 0-2.54-.74-2.54-2s1.06-2.11 3-2.11a10.57 10.57 0 013 .43zm-2.87-6.53a8.34 8.34 0 00-3.67.84l.45 1.23a7 7 0 013.07-.74c1.89 0 3 .94 3 2.75v.35a10.68 10.68 0 00-3.15-.43c-2.56 0-4.32 1.13-4.32 3.28s1.89 3.17 3.78 3.17a4.43 4.43 0 003.65-1.74v1.52h1.49v-6.16c0-2.66-1.55-4.06-4.3-4.06m-10.3 9.12a3.78 3.78 0 01-3.71-3.95 3.73 3.73 0 013.61-3.94 4.09 4.09 0 013.07 1.52l1-1.05a5.31 5.31 0 10.08 6.8L85.17 96a4.17 4.17 0 01-3 1.54m-9.68-8.98h1.5v10.1h-1.5zm-43.12-.22a3.82 3.82 0 00-3.46 2v-1.79H24.4v10.11h1.51v-5.79a3 3 0 013-3.17c1.78 0 2.79 1.17 2.79 3v5.9h1.51v-6.21a3.69 3.69 0 00-3.87-4m13.83 6.56c0 1.6-1.53 2.74-3.38 2.74-1.37 0-2.54-.74-2.54-2s1.06-2.11 3-2.11a10.56 10.56 0 012.92.42zm-2.87-6.53a8.34 8.34 0 00-3.66.84l.45 1.23a7 7 0 013.07-.74c1.89 0 3 .94 3 2.76v.35a10.65 10.65 0 00-3.11-.43c-2.56 0-4.32 1.13-4.32 3.28s1.89 3.17 3.77 3.17a4.42 4.42 0 003.67-1.74v1.53h1.4v-6.18c0-2.66-1.54-4.06-4.3-4.06m-28.41 5.23l3.13-7 3.11 7zm2.42-8.78L8.05 98.66h1.59L11.26 95h7.44l1.6 3.61h1.66l-6.23-13.73zm33.62-.49h1.5v14.27h-1.5zm-36.41-8.32a6 6 0 01-4.42 2 5.66 5.66 0 010-11.29 5.91 5.91 0 014.3 1.89l1.06-1.13a7.12 7.12 0 00-5.34-2.17 7.06 7.06 0 00-.06 14.12 7.12 7.12 0 005.47-2.41zm54.39-6.93h1.5v10.1h-1.5zm26.15 4.55a3.55 3.55 0 01-3.71 3.44 3.41 3.41 0 01-3.5-3.46 3.33 3.33 0 013.5-3.42 3.54 3.54 0 013.71 3.44m-8.76 0a4.66 4.66 0 004.75 4.75 4.78 4.78 0 004-2.13v1.19a3.32 3.32 0 01-3.67 3.6 6.45 6.45 0 01-3.89-1.29L83.74 81a7.92 7.92 0 004.59 1.41c3.11 0 5.14-1.66 5.14-4.92v-8.35h-1.5V71a4.78 4.78 0 00-8.7 2.76m14.46-.12a3.48 3.48 0 013.29-3.44c2 0 3.07 1.6 3.22 3.44zm8 .65c0-3-1.72-5.36-4.72-5.36a5.3 5.3 0 00.19 10.57 5.22 5.22 0 004.17-1.89l-.94-.84a4.18 4.18 0 01-3.18 1.43 3.54 3.54 0 01-3.56-3.42h8a3.87 3.87 0 000-.47m-84.06 1.22c0 1.6-1.53 2.74-3.38 2.74-1.37 0-2.54-.74-2.54-2s1.05-2.11 3-2.11a10.55 10.55 0 013 .43zM18.76 69a8.34 8.34 0 00-3.68.85l.45 1.23a7 7 0 013.07-.74c1.89 0 3 .94 3 2.76v.34a10.75 10.75 0 00-3.1-.44c-2.56 0-4.33 1.13-4.33 3.29s1.89 3.17 3.77 3.17a4.42 4.42 0 003.66-1.74v1.52h1.45v-6.17c0-2.66-1.54-4.07-4.3-4.07m40.58 2.78v-2.64h-1.51v10.1h1.51v-4c0-3 1.8-4.63 4-4.63h.12V69a4.33 4.33 0 00-4.13 2.81m-19.24 1.53v5.9h1.51V73c0-2.5-1.43-4.06-3.75-4.06a4 4 0 00-3.56 2 3.43 3.43 0 00-3.24-2 3.7 3.7 0 00-3.27 1.91v-1.7h-1.51v10.1h1.51v-5.77a2.93 2.93 0 012.81-3.19c1.6 0 2.6 1.11 2.6 3v5.94h1.49v-5.81a2.83 2.83 0 012.79-3.13c1.64 0 2.62 1.09 2.62 3m35.32 4.82a3.65 3.65 0 01-3.56-3.93 3.57 3.57 0 013.56-3.91 3.93 3.93 0 010 7.84m3.6-.9v2h1.51V65H79v6.1a4.57 4.57 0 00-3.83-2.17 5.29 5.29 0 000 10.54 4.55 4.55 0 003.87-2.25m-29.09.89a3.93 3.93 0 010-7.84 3.65 3.65 0 013.56 3.93 3.57 3.57 0 01-3.56 3.91m5.1-3.93a4.94 4.94 0 00-4.83-5.26 4.55 4.55 0 00-3.87 2.25V65h-1.51v14.25h1.51v-1.94a4.57 4.57 0 003.87 2.15 5 5 0 004.83-5.28M67.76 66a1.1 1.1 0 10-1.1 1.1 1.1 1.1 0 001.1-1.1zm5.47 18.27a1.1 1.1 0 101.1 1.1 1.1 1.1 0 00-1.1-1.1M26.5 10.06a1.36 1.36 0 11-1.33-1.36 1.36 1.36 0 011.36 1.36m-5.75 10.15a1.36 1.36 0 11-1.36-1.36 1.36 1.36 0 011.36 1.36m17.2 14.21a1.36 1.36 0 11-1.36-1.36 1.36 1.36 0 011.36 1.36M34.39 13.2a1.36 1.36 0 11-1.36-1.36 1.36 1.36 0 011.36 1.36m14.68 2.02a1.36 1.36 0 11-1.36-1.36 1.36 1.36 0 011.36 1.36M44.95 1.36A1.36 1.36 0 1143.59 0a1.36 1.36 0 011.36 1.36M57.6 2A1.36 1.36 0 1156.24.65 1.36 1.36 0 0157.6 2m16.78 4.46a1.36 1.36 0 11-1.36-1.36 1.36 1.36 0 011.36 1.36m12.64 13.67a1.36 1.36 0 11-1.36-1.36 1.36 1.36 0 011.36 1.36M68.85 13.5a1.36 1.36 0 11-1.36-1.36 1.36 1.36 0 011.36 1.36m13.88 24.18a1.36 1.36 0 11-1.36-1.36 1.36 1.36 0 011.36 1.36m-27.21 4.05a1.36 1.36 0 11-1.35-1.35 1.36 1.36 0 011.36 1.36m12.48 13.52a1.36 1.36 0 11-1.36-1.36 1.36 1.36 0 011.36 1.36"/><path d="M24.905 9.37L43.393.7l.152.326-18.487 8.672z"/><path d="M43.439 1.045l.025-.36 12.799.891-.025.36zM24.82 9.44l.31.18-5.99 10.49-.31-.18z"/><path d="M18.832 20.101l.325-.154 5.542 11.67-.325.155z"/><path d="M18.908 19.859l13.963-7.09.163.321-13.963 7.09zM24.46 31.42l12.07 2.82-.08.35-12.07-2.82zm8.76-18.45l14.52 2.07-.05.35-14.52-2.06z"/><path d="M47.706 15.074l19.77-1.772.033.359-19.77 1.771z"/><path d="M67.427 13.667l.12-.339 18.386 6.525-.12.34zM32.8 12.799L43.327.749l.27.237-10.526 12.05z"/><path d="M43.289.913l.345-.102 4.257 14.352-.345.102z"/><path d="M56.11 1.66l.3.19-8.54 13.46-.3-.19z"/><path d="M56.12 1.882l.26-.249 11.232 11.743-.26.249z"/><path d="M56.3 1.58l16.77 4.7-.09.35-16.77-4.7z"/><path d="M73.15 6.33L86.01 19.9l-.26.25L72.89 6.58z"/><path d="M67.353 13.389l5.542-7.04.283.222-5.542 7.04zm-42.589-3.358l.134-.334 7.949 3.176-.134.334zM67.04 55.8l-1.23-.03-.13.34 1.23.02zM54.32 41.65l11.69 13.12-.31.17L54 41.82z"/><path d="M64.51 43.9l2.75 12-.34.12-2.75-12zm-4.95-16.258l7.77-14.227.316.173-7.77 14.226zm-5.566 14.024l5.293-13.456.335.131-5.293 13.457z"/><path d="M60.81 28.27a1.36 1.36 0 11-1.36-1.36 1.36 1.36 0 011.36 1.36M32.844 13.229l.355-.06 3.589 21.218-.355.06z"/><path d="M36.55 34.595l.139-.333 17.537 7.311-.139.332zm38.19-4.675a1.36 1.36 0 11-1.36-1.36 1.36 1.36 0 011.36 1.36M47.85 15.1l11.73 13.05-.26.24-11.74-13.05zm33.356 22.552l4.29-17.553.349.085-4.289 17.554z"/><path d="M85.77 19.88l.22.28-12.49 9.9-.22-.28z"/><path d="M67.327 13.561l.338-.121 5.897 16.423-.339.122z"/><path d="M59.423 28.453l.042-.357 13.933 1.649-.043.357zm-40.109-8.11l.23-.276 17.06 14.204-.23.277z"/><path d="M36.464 34.331l11.09-19.208.312.18-11.09 19.208z"/><path d="M59.4 28.1l.1.35-22.84 6.14-.09-.34zm13.84 1.72l.29.2-9.04 14.04-.3-.2z"/><path d="M65.7 44a1.36 1.36 0 11-1.36-1.36A1.36 1.36 0 0165.7 44"/><path d="M59.62 28.23l4.71 15.3-.35.09-4.7-15.3zm-5.41 13.33l10.18 2.23-.1.34-10.18-2.22z"/><path d="M41.896 41.583l12.27-.034v.36l-12.269.034z"/><path d="M36.76 34.32l5.42 7.41-.29.21-5.42-7.41zm44.55 3.2l.13.33-17.04 6.28-.12-.34z"/><path d="M73.26 30.056l.25-.259 7.99 7.763-.25.258zm12.226-9.913l.356-.055 1.786 11.634-.356.054z"/><path d="M81.25 37.552l6.126-6.08.253.256-6.125 6.08z"/><path d="M81.21 37.61l.32.15-4.34 8.29-.33-.16z"/><path d="M64.36 43.78l12.83 1.92-.04.36-12.83-1.92zM26.17 31.3a1.36 1.36 0 11-1.36-1.36 1.36 1.36 0 011.36 1.36"/></svg>