<?xml version="1.0" encoding="UTF-8" standalone="no"?>
<svg
   xmlns:dc="http://purl.org/dc/elements/1.1/"
   xmlns:cc="http://creativecommons.org/ns#"
   xmlns:rdf="http://www.w3.org/1999/02/22-rdf-syntax-ns#"
   xmlns:svg="http://www.w3.org/2000/svg"
   xmlns="http://www.w3.org/2000/svg"
   xmlns:sodipodi="http://sodipodi.sourceforge.net/DTD/sodipodi-0.dtd"
   xmlns:inkscape="http://www.inkscape.org/namespaces/inkscape"
   width="179.69283"
   height="101.92062"
   id="svg3967"
   sodipodi:version="0.32"
   inkscape:version="1.0.2 (e86c8708, 2021-01-15)"
   version="1.0"
   sodipodi:docname="CSC_Logo.svg"
   inkscape:output_extension="org.inkscape.output.svg.inkscape">
  <defs
     id="defs3969">
    <inkscape:perspective
       sodipodi:type="inkscape:persp3d"
       inkscape:vp_x="0 : 506.46789 : 1"
       inkscape:vp_y="0 : 1000 : 0"
       inkscape:vp_z="744.09448 : 506.46789 : 1"
       inkscape:persp3d-origin="372.04724 : 331.07419 : 1"
       id="perspective3975" />
    <inkscape:perspective
       id="perspective3984"
       inkscape:persp3d-origin="372.04724 : 331.07419 : 1"
       inkscape:vp_z="744.09448 : 506.46789 : 1"
       inkscape:vp_y="0 : 1000 : 0"
       inkscape:vp_x="0 : 506.46789 : 1"
       sodipodi:type="inkscape:persp3d" />
  </defs>
  <sodipodi:namedview
     id="base"
     pagecolor="#ffffff"
     bordercolor="#666666"
     borderopacity="1.0"
     gridtolerance="10000"
     guidetolerance="10"
     objecttolerance="10"
     inkscape:pageopacity="0.0"
     inkscape:pageshadow="2"
     inkscape:zoom="1.6113937"
     inkscape:cx="100.62157"
     inkscape:cy="147.26405"
     inkscape:document-units="px"
     inkscape:current-layer="layer1"
     showgrid="false"
     inkscape:window-width="1703"
     inkscape:window-height="847"
     inkscape:window-x="423"
     inkscape:window-y="25"
     inkscape:document-rotation="0"
     fit-margin-top="0"
     fit-margin-left="0"
     fit-margin-right="0"
     fit-margin-bottom="0"
     inkscape:window-maximized="0" />
  <metadata
     id="metadata3972">
    <rdf:RDF>
      <cc:Work
         rdf:about="">
        <dc:format>image/svg+xml</dc:format>
        <dc:type
           rdf:resource="http://purl.org/dc/dcmitype/StillImage" />
        <dc:title></dc:title>
      </cc:Work>
    </rdf:RDF>
  </metadata>
  <g
     inkscape:label="Layer 1"
     inkscape:groupmode="layer"
     id="layer1"
     transform="translate(-404.84149,-471.37912)">
    <path
       style="display:inline;overflow:visible;visibility:visible;fill:#e70021;fill-opacity:1;fill-rule:nonzero;stroke:#4b2c1a;stroke-width:0;stroke-linecap:butt;stroke-linejoin:miter;stroke-miterlimit:4;stroke-dashoffset:0;stroke-opacity:1;marker:none;marker-start:none;marker-mid:none;marker-end:none;enable-background:accumulate"
       d="m 432.8963,471.37912 h 151.63802 v 74.93117 l -26.63431,26.98945 H 404.84149 v -73.51071 z"
       id="rect3999"
       sodipodi:nodetypes="ccccccc" />
    <path
       style="font-style:normal;font-weight:normal;font-size:967.189px;line-height:125%;font-family:'Bitstream Vera Sans';text-align:start;text-anchor:start;fill:#ffffff;fill-opacity:1;stroke:none;stroke-width:1px;stroke-linecap:butt;stroke-linejoin:miter;stroke-opacity:1"
       d="m 452.23106,548.53959 c -3.3575,0 -6.5141,-0.61003 -9.46981,-1.83009 -2.95574,-1.22005 -5.51928,-2.92536 -7.69063,-5.11596 -2.17136,-2.19057 -3.89519,-4.78783 -5.17149,-7.79179 -1.27631,-3.00394 -1.91447,-6.26776 -1.91446,-9.79146 v -0.13648 c -10e-6,-3.43267 0.62687,-6.65098 1.88064,-9.65497 1.25375,-3.00392 2.97758,-5.62393 5.17149,-7.86004 2.1939,-2.23603 4.80219,-3.98651 7.82489,-5.25141 3.02267,-1.26481 6.32548,-1.89724 9.90845,-1.89729 2.4173,5e-5 4.61121,0.23718 6.58172,0.71136 4.94946,1.13722 9.13176,4.15477 12.71703,7.64904 l -8.50729,7.88342 c -4.30731,-4.31835 -9.96246,-5.41153 -15.45974,-3.26781 -1.41019,0.54992 -2.54136,1.54681 -3.52658,2.67585 -0.98526,1.1291 -1.75768,2.4615 -2.31724,3.99723 -0.55959,1.53577 -0.83938,3.16251 -0.83937,4.88021 v 0.13441 c -1e-5,1.76186 0.27978,3.42203 0.83937,4.98051 0.55956,1.55852 1.33198,2.90264 2.31724,4.03239 0.98522,1.12976 2.16074,2.02206 3.52658,2.67688 1.36578,0.65483 2.87678,0.98226 4.533,0.98225 1.20932,10e-6 2.31754,-0.13544 3.32468,-0.40635 3.26032,-1.05309 6.23448,-2.835 8.58552,-5.35273 l 7.85999,8.57384 c -1.12058,1.53714 -1.69186,1.432 -3.01253,2.74165 -1.32076,1.30966 -2.82083,2.43873 -4.50021,3.3872 -1.67946,0.94848 -3.56009,1.69395 -5.64191,2.23642 -2.08189,0.54248 -4.42166,0.81372 -7.01934,0.81372 z m 44.89959,-0.13649 c -4.20882,0 -8.20513,-0.65482 -11.98894,-1.96449 -3.78383,-1.30966 -6.69815,-3.27484 -9.60878,-5.89554 l 8.33626,-8.52452 c 4.70073,3.79527 7.61825,5.47646 13.08151,5.47645 1.74636,10e-6 3.07869,-0.2826 3.997,-0.84784 0.91825,-0.56521 1.37739,-1.36686 1.37742,-2.40496 v -0.13648 c -3e-5,-0.49627 -0.11208,-0.93639 -0.33615,-1.32034 -0.22414,-0.38392 -0.63853,-0.75683 -1.24317,-1.11873 -0.6047,-0.36187 -1.41059,-0.71203 -2.41767,-1.05049 -1.00713,-0.33843 -2.31692,-0.68824 -3.92936,-1.04945 -2.50753,-0.58726 -4.1867,-1.23106 -6.33618,-1.93141 -2.1495,-0.7003 -4.01887,-1.60397 -5.60809,-2.711 -1.58924,-1.10698 -2.843,-2.48488 -3.76128,-4.13371 -0.91828,-1.64876 -1.37742,-3.69253 -1.37742,-6.13129 v -0.13648 c 0,-2.2126 0.41438,-4.24499 1.24317,-6.09717 0.82877,-1.8521 2.03777,-3.45574 3.62701,-4.81094 1.58923,-1.35511 3.50334,-2.4056 5.74236,-3.15147 9.15093,-3.10615 18.48596,-0.39366 25.01379,5.27098 l -8.09116,8.57873 c -2.94517,-2.38143 -5.91921,-3.91841 -9.66757,-4.05825 -1.56739,4e-5 -2.74292,0.29367 -3.52659,0.88092 -0.7837,0.58731 -1.17554,1.3097 -1.17552,2.16715 v 0.13647 c -2e-5,0.54183 0.12297,1.01606 0.36895,1.42272 0.24595,0.40671 0.67128,0.77928 1.27597,1.11769 0.60465,0.33848 1.43309,0.67726 2.48531,1.01637 1.05218,0.33916 2.38451,0.68933 3.99699,1.05048 2.6865,0.58731 5.11545,1.27626 7.28683,2.06685 2.17133,0.79065 4.01849,1.7505 5.54148,2.87954 1.52292,1.12909 2.68717,2.49562 3.49276,4.09959 0.80551,1.60401 1.20828,3.51302 1.20832,5.72702 v 0.13441 c -4e-5,2.44012 -0.45884,4.60864 -1.3764,6.50558 -0.91764,1.89694 -2.20487,3.51162 -3.86171,4.84403 -1.65691,1.33241 -3.6496,2.34878 -5.97807,3.04909 -2.32854,0.70033 -4.92556,1.05049 -7.79107,1.05049 z"
       id="text3990"
       sodipodi:nodetypes="csssccsssscccsssccsssscccssscccsccssccssscsssccssccccsccssscsssccssscc" />
    <path
       style="font-style:normal;font-weight:normal;font-size:967.189px;line-height:125%;font-family:'Bitstream Vera Sans';text-align:start;text-anchor:start;fill:#ffffff;fill-opacity:1;stroke:none;stroke-width:1px;stroke-linecap:butt;stroke-linejoin:miter;stroke-opacity:1"
       d="m 540.97467,548.53959 c -3.3575,0 -6.5141,-0.61003 -9.46981,-1.83009 -2.95574,-1.22005 -5.51928,-2.92536 -7.69063,-5.11596 -2.17136,-2.19057 -3.89519,-4.78783 -5.17149,-7.79179 -1.27631,-3.00394 -1.91447,-6.26776 -1.91446,-9.79146 v -0.13648 c -1e-5,-3.43267 0.62687,-6.65098 1.88064,-9.65497 1.25375,-3.00392 2.97758,-5.62393 5.17149,-7.86004 2.1939,-2.23603 4.80219,-3.98651 7.82489,-5.25141 3.02267,-1.26481 6.32548,-1.89724 9.90845,-1.89729 2.4173,5e-5 4.61121,0.23718 6.58172,0.71136 4.94946,1.13722 9.13176,4.15477 12.71703,7.64904 l -8.50729,7.88342 c -4.30731,-4.31835 -9.96246,-5.41153 -15.45974,-3.26781 -1.41019,0.54992 -2.54136,1.54681 -3.52658,2.67585 -0.98526,1.1291 -1.75768,2.4615 -2.31724,3.99723 -0.55959,1.53577 -0.83938,3.16251 -0.83937,4.88021 v 0.13441 c -10e-6,1.76186 0.27978,3.42203 0.83937,4.98051 0.55956,1.55852 1.33198,2.90264 2.31724,4.03239 0.98522,1.12976 2.16074,2.02206 3.52658,2.67688 1.36578,0.65483 2.87678,0.98226 4.533,0.98225 1.20932,10e-6 2.31754,-0.13544 3.32468,-0.40635 3.26032,-1.05309 6.23448,-2.835 8.58552,-5.35273 l 7.85999,8.57384 c -1.12058,1.53714 -1.69186,1.432 -3.01253,2.74165 -1.32076,1.30966 -2.82083,2.43873 -4.50021,3.3872 -1.67946,0.94848 -3.56009,1.69395 -5.64191,2.23642 -2.08189,0.54248 -4.42166,0.81372 -7.01934,0.81372 z"
       id="path3997"
       sodipodi:nodetypes="csssccsssscccsssccsssscccssscc" />
  </g>
</svg>
