<?xml version="1.0" encoding="UTF-8" standalone="no"?>
<svg
   xmlns:dc="http://purl.org/dc/elements/1.1/"
   xmlns:cc="http://creativecommons.org/ns#"
   xmlns:rdf="http://www.w3.org/1999/02/22-rdf-syntax-ns#"
   xmlns:svg="http://www.w3.org/2000/svg"
   xmlns="http://www.w3.org/2000/svg"
   viewBox="0 0 299.99999 224.84497"
   height="224.84499"
   width="300"
   xml:space="preserve"
   version="1.1"
   id="svg2"><metadata
     id="metadata8"><rdf:RDF><cc:Work
         rdf:about=""><dc:format>image/svg+xml</dc:format><dc:type
           rdf:resource="http://purl.org/dc/dcmitype/StillImage" /><dc:title></dc:title></cc:Work></rdf:RDF></metadata><defs
     id="defs6"><clipPath
       id="clipPath104"
       clipPathUnits="userSpaceOnUse"><path
         id="path106"
         d="m 0,0 595.276,0 0,841.89 L 0,841.89 0,0 Z" /></clipPath><clipPath
       id="clipPath170"
       clipPathUnits="userSpaceOnUse"><path
         id="path172"
         d="m 0,0 595.276,0 0,841.89 L 0,841.89 0,0 Z" /></clipPath><clipPath
       id="clipPath214"
       clipPathUnits="userSpaceOnUse"><path
         id="path216"
         d="m 0,0 595.276,0 0,841.89 L 0,841.89 0,0 Z" /></clipPath><clipPath
       id="clipPath266"
       clipPathUnits="userSpaceOnUse"><path
         id="path268"
         d="m 449.859,704.443 127.469,0 0,137.079 -127.469,0 0,-137.079 z" /></clipPath><clipPath
       id="clipPath266-0"
       clipPathUnits="userSpaceOnUse"><path
         id="path268-3"
         d="m 449.859,704.443 127.469,0 0,137.079 -127.469,0 0,-137.079 z" /></clipPath></defs><g
     transform="matrix(1.25,0,0,-1.25,122.00016,959.18319)"
     id="g10"><g
       transform="matrix(2.5179667,0,0,2.5179667,148.15375,-891.76072)"
       id="g4101"><path
         id="path336"
         style="fill:#e51636;fill-opacity:1;fill-rule:nonzero;stroke:none"
         d="m -97.60013,623.18955 c 0,19.729 21.342,35.718 47.66,35.718 26.319,0 47.655,-15.989 47.655,-35.718 0,-19.729 -21.336,-35.719 -47.655,-35.719 -26.318,0 -47.66,15.99 -47.66,35.719" /><path
         id="path340"
         style="fill:#ffffff;fill-opacity:1;fill-rule:nonzero;stroke:none"
         d="m -40.48433,614.99765 c 0.01,4.583 3.506,8.034 7.979,8.04 1.781,0 3.38,-0.351 4.693,-1.319 l 0,-2.18 c -1.012,0.748 -2.453,1.396 -4.693,1.389 -3.417,-0.018 -5.637,-2.409 -5.614,-5.93 0.026,-3.438 2.356,-5.927 5.614,-5.927 2.027,0 3.206,0.37 4.693,1.387 l 0,-2.185 c -1.299,-0.959 -2.912,-1.311 -4.693,-1.311 -4.743,0 -7.987,3.57 -7.979,8.036" /><path
         id="path344"
         style="fill:#ffffff;fill-opacity:1;fill-rule:nonzero;stroke:none"
         d="m -25.22853,622.64755 0,-15.306 10.326,0 0,2.112 -8.094,0 0,4.661 7.043,0 0,2.111 -7.043,0 0,4.315 7.715,0 0,2.107 -9.947,0 z" /><path
         d="m -45.29143,607.34225 2.236,0 0,15.306 -2.236,0 0,-15.306 z"
         style="fill:#ffffff;fill-opacity:1;fill-rule:nonzero;stroke:none"
         id="path346" /><path
         id="path350"
         style="fill:#ffffff;fill-opacity:1;fill-rule:nonzero;stroke:none"
         d="m -69.27783,622.64755 0,-15.306 2.238,0 0,6.535 6.538,0 0,2.112 -6.538,0 0,4.552 7.321,0 0,2.107 -9.559,0 z" /><path
         id="path354"
         style="fill:#ffffff;fill-opacity:1;fill-rule:nonzero;stroke:none"
         d="m -85.06783,614.99765 c 0,3.437 2.359,5.93 5.608,5.93 3.251,0 5.602,-2.493 5.602,-5.93 0,-3.438 -2.351,-5.927 -5.602,-5.927 -3.249,0 -5.608,2.489 -5.608,5.927 m -2.366,0 c 0,-4.579 3.427,-8.036 7.974,-8.036 4.545,0 7.975,3.457 7.975,8.036 0,4.583 -3.43,8.04 -7.975,8.04 -4.547,0 -7.974,-3.457 -7.974,-8.04" /><path
         id="path358"
         style="fill:#ffffff;fill-opacity:1;fill-rule:nonzero;stroke:none"
         d="m -57.34133,622.64755 0,-15.306 2.239,0 0,6.535 6.534,0 0,2.112 -6.534,0 0,4.552 7.323,0 0,2.107 -9.562,0 z" /><path
         id="path362"
         style="fill:#ffffff;fill-opacity:1;fill-rule:nonzero;stroke:none"
         d="m -44.75003,638.71805 c 0,-3.403 2.398,-4.112 4.52,-4.784 1.568,-0.5 3.062,-1.021 3.062,-2.468 0,-1.521 -1.648,-2.29 -3.062,-2.311 -1.463,-0.019 -3.088,0.683 -4.258,1.515 l 0.004,-2.239 c 1.129,-0.937 2.713,-1.485 4.209,-1.471 3.144,0.03 5.437,1.988 5.437,4.775 0,3.029 -2.371,3.673 -4.377,4.286 -1.703,0.522 -3.238,1.021 -3.238,2.697 0,0.82 0.672,2.211 2.92,2.211 1.158,0 2.01,-0.171 3.496,-1.103 l 0.152,-0.105 0.006,2.245 c -0.91,0.7 -2.225,1.072 -3.654,1.071 -3.803,-0.002 -5.217,-2.651 -5.217,-4.319" /><path
         id="path366"
         style="fill:#ffffff;fill-opacity:1;fill-rule:nonzero;stroke:none"
         d="m -34.00193,642.65195 0,-2.111 4.867,0 0,-13.193 2.235,0 0,13.193 4.867,0 0,2.111 -11.969,0 z" /><path
         id="path370"
         style="fill:#ffffff;fill-opacity:1;fill-rule:nonzero;stroke:none"
         d="m -59.90383,634.99965 c 0,3.437 2.363,5.929 5.61,5.929 3.249,0 5.608,-2.492 5.608,-5.929 0,-3.437 -2.359,-5.93 -5.608,-5.93 -3.247,0 -5.61,2.493 -5.61,5.93 m -2.364,0 c 0,-4.585 3.432,-8.04 7.974,-8.04 4.544,0 7.972,3.455 7.972,8.04 0,4.581 -3.428,8.036 -7.972,8.036 -4.542,0 -7.974,-3.455 -7.974,-8.036" /><path
         id="path374"
         style="fill:#ffffff;fill-opacity:1;fill-rule:nonzero;stroke:none"
         d="m -68.71923,640.67395 c 1.177,0 3.147,-0.335 3.147,-2.569 0,-2.233 -1.97,-2.566 -3.147,-2.566 l -2.818,0 0,5.135 2.818,0 z m -5.058,1.978 0,-15.304 2.24,0 0,6.205 3.17,0 c 4.588,0 4.943,3.485 4.943,4.552 0,1.064 -0.355,4.547 -4.943,4.547 l -5.41,0" /><path
         id="path378"
         style="fill:#e51636;fill-opacity:1;fill-rule:nonzero;stroke:none"
         d="m -3.01213,654.60465 c 0,-0.989 -0.339,-1.833 -1.023,-2.533 -0.68,-0.695 -1.512,-1.043 -2.49,-1.043 -0.983,0 -1.813,0.348 -2.496,1.048 -0.684,0.699 -1.026,1.541 -1.026,2.528 0,0.993 0.342,1.837 1.026,2.531 0.683,0.697 1.513,1.043 2.496,1.043 0.984,0 1.814,-0.346 2.494,-1.041 0.68,-0.692 1.019,-1.54 1.019,-2.533 m -0.611,0 c 0.008,0.824 -0.271,1.526 -0.834,2.104 -0.57,0.574 -1.258,0.867 -2.068,0.867 -0.807,0 -1.492,-0.293 -2.057,-0.864 -0.56,-0.575 -0.844,-1.281 -0.855,-2.107 0.011,-0.824 0.295,-1.522 0.855,-2.1 0.565,-0.581 1.25,-0.871 2.057,-0.871 0.81,0 1.498,0.29 2.068,0.871 0.563,0.578 0.842,1.276 0.834,2.1 m -1.41,-1.737 -0.707,0 -0.815,1.393 c -0.037,-0.006 -0.097,-0.01 -0.177,-0.01 -0.088,0 -0.168,0.004 -0.239,0.01 l 0,-1.393 -0.615,0 0,3.452 0.821,0 c 0.904,0 1.355,-0.336 1.355,-1.014 0,-0.427 -0.184,-0.725 -0.541,-0.898 l 0.918,-1.54 z m -0.994,2.424 c 0,0.316 -0.24,0.475 -0.721,0.475 l -0.223,0 0,-0.955 c 0.081,-0.006 0.168,-0.006 0.264,-0.006 0.453,0 0.68,0.161 0.68,0.486" /></g></g></svg>